<svg width="40" height="40" viewBox="0 0 40 40" fill="none" xmlns="http://www.w3.org/2000/svg">
<rect width="40" height="40" fill="white"/>
<path fill-rule="evenodd" clip-rule="evenodd" d="M22.3177 8.326L22.9972 8.77592C23.0012 8.7912 23.0113 8.81713 23.0246 8.85132C23.1229 9.10344 23.396 9.80443 22.6755 9.99222C22.6089 10.0087 21.8212 10.1532 21.3719 10.1683C20.0724 10.2151 18.7799 10.3912 17.4985 10.6073C17.4576 10.6214 17.4459 10.6234 17.4357 10.6287C17.4222 10.6357 17.4115 10.6484 17.3376 10.7036C17.2388 11.787 16.993 12.4349 16.6982 13.212C16.513 13.7001 16.3085 14.2391 16.1089 14.9689C15.9786 15.3541 13.7486 22.059 13.6515 22.4428C13.6515 22.4568 13.6518 22.4722 13.6522 22.4884C13.6534 22.5473 13.6548 22.6166 13.6418 22.663C13.6335 22.6933 13.621 22.7221 13.5974 22.7428C13.5863 22.7524 13.5489 22.7978 13.5461 22.8143C13.4362 23.4323 13.2903 24.0419 13.1445 24.6515C13.1137 24.7803 13.0829 24.909 13.0524 25.0378C13.0139 25.199 12.9658 25.3639 12.9171 25.5309C12.8006 25.9298 12.6807 26.3406 12.6807 26.7412V27.3177C13.1009 27.3177 18.7425 27.7346 18.7425 27.7346C18.7161 27.7346 18.9866 27.8749 19.1544 27.9341C19.2001 27.9492 19.2598 28.0469 19.2598 28.0469V28.2478C19.2671 28.3092 19.3496 28.4002 19.4356 28.4951C19.5461 28.6169 19.6624 28.7452 19.6328 28.8257C19.6328 29.2921 19.1738 29.4201 18.7993 29.4875C18.7064 29.5054 18.0532 29.6815 18.0491 29.6925C17.1827 29.6925 16.3192 29.7621 15.4552 29.8317C14.726 29.8905 13.9964 29.9493 13.2646 29.9663C13.2057 29.9675 13.1427 29.9653 13.0781 29.963C12.7833 29.9526 12.4562 29.941 12.3493 30.2525C12.3119 30.3612 12.4038 30.7126 12.4869 31.0297C12.5331 31.2062 12.5765 31.3721 12.5934 31.4798C12.5989 31.5087 12.5531 31.5803 12.5323 31.5926C12.4977 31.6133 12.4672 31.6435 12.4436 31.6876C12.3923 31.7798 12.3299 31.8912 12.2494 31.9765C12.2356 31.9917 12.1551 32.0013 12.126 32.0013C11.9055 32.0013 11.5505 31.777 11.5505 31.777C11.1776 31.6209 10.9836 31.1814 10.8164 30.8029C10.7081 30.5577 10.611 30.338 10.484 30.2374C10.001 30.1594 9.53751 30.1278 9.08391 30.0969C8.23244 30.0389 7.41601 29.9833 6.57183 29.6278C6.15162 29.3705 5.86039 29.0183 5.63434 28.5367C5.50398 28.4418 5.53727 28.1845 5.63434 27.9602H5.53727C5.41245 27.9602 5.63989 27.3741 5.65515 27.3438C5.792 27.0845 5.87213 27.0663 6.18342 26.9958L6.196 26.993C6.21363 26.989 6.23147 26.9848 6.24951 26.9807C6.46001 26.9321 6.69645 26.8775 6.90466 26.9104C7.19451 26.9572 9.6769 27.1883 10.4854 27.2214L10.5173 27.1581L11.1955 22.6024C11.3577 22.1855 12.0359 18.9769 12.0359 18.9769C12.0359 18.9453 14.2353 11.1507 14.2353 11.1507C13.9594 10.8728 12.194 11.2264 11.606 11.3695C10.95 11.5305 10.6532 11.419 10.0971 10.9898C9.85601 10.7506 9.75232 10.3253 9.65402 9.92214C9.61266 9.7525 9.57225 9.58678 9.52296 9.44048C9.50077 9.37582 9.62004 9.20108 9.84886 9.15567C10.6365 8.99773 12.3662 8.72294 13.0105 8.62058C13.1128 8.60435 13.1876 8.59245 13.2271 8.58604C13.2584 8.58115 13.368 8.56175 13.5288 8.53328C14.1819 8.41767 15.6799 8.15251 16.2074 8.10172C16.7881 8.0459 17.3825 8.03281 17.9703 8.01987C18.1504 8.0159 18.3299 8.01195 18.5081 8.00679C19.7895 7.96826 21.0543 8.09072 22.3177 8.326ZM34.2679 10.2978C34.2679 10.2978 34.7464 10.8702 34.3345 10.8151C34.8629 11.4384 32.3193 11.8897 32.5856 11.748C32.3068 11.8903 31.338 12.1371 30.3436 12.3906C29.4433 12.62 28.5221 12.8547 28.0727 13.0221C27.8286 13.1131 27.506 13.1464 27.1749 13.1807C26.6499 13.235 26.1037 13.2915 25.8162 13.5835C25.4835 13.922 25.3125 14.6822 25.1785 15.278C25.1388 15.4546 25.1023 15.6167 25.0659 15.7491C24.9964 16.0021 24.9301 16.2559 24.8638 16.5096C24.7275 17.0313 24.5912 17.5528 24.4279 18.0675C25.8855 17.9217 27.3432 17.7745 28.8008 17.6273C29.0337 17.604 29.1789 17.5766 29.3169 17.5507C29.4803 17.5199 29.6335 17.4911 29.9103 17.4731C29.9102 17.4731 29.9106 17.4732 29.9117 17.4732C29.9645 17.4746 31.4668 17.5137 31.7604 17.9561C31.9019 18.1694 31.8131 19.1641 31.4761 19.2935C31.3651 19.2935 31.1796 19.409 31.0172 19.5102C30.9239 19.5682 30.8382 19.6216 30.7785 19.6457C30.6034 19.7153 29.5963 19.8925 28.3674 20.1086C26.6572 20.4095 24.5172 20.7859 23.5916 21.0533C23.5074 21.5064 23.3825 21.9464 23.2578 22.3857C23.0887 22.9815 22.92 23.5759 22.8538 24.2C22.783 24.8604 22.0868 28.0085 21.9772 28.336C21.858 28.4474 20.7928 28.9386 20.4739 27.8558C20.4063 27.6262 20.4623 27.2391 20.5123 26.8929C20.5373 26.7204 20.5608 26.558 20.5668 26.4303C20.6167 25.2856 20.7415 24.1477 20.9024 23.0139C20.9801 22.4636 21.0674 21.9132 21.1548 21.3642C21.162 21.3186 21.1776 21.2574 21.1947 21.1905C21.2338 21.0373 21.2804 20.8545 21.2505 20.7616C21.2245 20.6811 21.0922 20.5765 20.959 20.471C20.8507 20.3853 20.7417 20.299 20.6888 20.225C20.5571 20.042 20.46 19.8356 20.3892 19.6223C20.2894 19.3224 20.2519 19.0018 20.2214 18.6881C20.4454 18.6044 20.6992 18.5678 20.9537 18.5311C21.2681 18.4857 21.5835 18.4402 21.8441 18.3056C22.0523 17.5407 22.2749 16.7785 22.4974 16.0166C22.5907 15.6972 22.6839 15.3779 22.7761 15.0584C22.9104 14.5947 23.0713 14.1322 23.2308 13.6736C23.3629 13.2941 23.4939 12.9172 23.6082 12.5446C23.678 12.3176 23.6067 12.0822 23.5412 11.8658C23.4361 11.5184 23.3458 11.2199 23.8773 11.0834C23.9582 11.0628 23.9908 11.0756 24.024 11.0885C24.0596 11.1025 24.0959 11.1167 24.1935 11.0903C24.2535 11.0744 24.3005 11.0401 24.348 11.0054C24.4072 10.9623 24.4672 10.9186 24.5541 10.9087C24.6815 10.894 24.8391 10.9084 25.0037 10.9233C25.1796 10.9393 25.3637 10.956 25.5277 10.939C25.9987 10.8894 26.4509 10.7884 26.9023 10.6875C27.2658 10.6063 27.6288 10.5251 28.0005 10.4711C28.5134 10.3972 29.0292 10.3317 29.5448 10.2663C29.8825 10.2235 30.2201 10.1806 30.5566 10.1354C30.752 10.1092 30.9759 10.0662 31.2163 10.02C32.2369 9.82401 33.5563 9.57063 34.2679 10.2978Z" fill="#F14156"/>
</svg>
