<svg width="94" height="32" viewBox="0 0 94 32" fill="none" xmlns="http://www.w3.org/2000/svg">
<g clip-path="url(#clip0)">
<path fill-rule="evenodd" clip-rule="evenodd" d="M17.4228 0.338634L18.1275 0.808757C18.1317 0.824664 18.1421 0.851269 18.1556 0.886202C18.2577 1.14907 18.5428 1.88347 17.7932 2.07899C17.7255 2.09707 16.9079 2.24625 16.4426 2.26433C15.0965 2.30953 13.7594 2.49487 12.4313 2.72089C12.4151 2.72607 12.4033 2.72955 12.3944 2.73219C12.3802 2.73639 12.3732 2.73846 12.3669 2.74182C12.3607 2.74508 12.3553 2.74955 12.3445 2.75836C12.3307 2.76967 12.3081 2.78813 12.2642 2.82034C12.1615 3.95335 11.9071 4.62916 11.6016 5.44094L11.6016 5.44095L11.6016 5.44096C11.4097 5.95061 11.1977 6.51385 10.9904 7.27747C10.8549 7.67978 8.54207 14.6864 8.44269 15.0887C8.44269 15.1565 8.47883 15.1882 8.51045 15.1882C8.46347 15.1882 8.45283 15.2337 8.44083 15.2849C8.42745 15.3421 8.41238 15.4066 8.34331 15.4233C8.23224 16.0791 8.07868 16.7258 7.92492 17.3733C7.89109 17.5158 7.85724 17.6583 7.82384 17.801C7.78387 17.9703 7.73408 18.1432 7.68373 18.318C7.56338 18.7358 7.43988 19.1645 7.43988 19.582V20.1832C7.87353 20.1832 14.6402 20.6172 14.6402 20.6172H14.6086C14.577 20.6172 15.0378 20.8523 15.1462 20.8523V21.1551C15.1304 21.1766 15.1106 21.2013 15.0889 21.2283C14.9733 21.3718 14.8067 21.5789 14.9474 21.6931C14.9189 21.6931 14.8934 21.6917 14.87 21.6904C14.782 21.6856 14.7232 21.6823 14.6448 21.7609C14.6448 22.2491 14.1705 22.3802 13.782 22.4525C13.6871 22.4706 13.0095 22.6604 13.005 22.6695C12.1145 22.6695 11.2265 22.7416 10.3377 22.8138C9.57642 22.8757 8.8145 22.9376 8.0497 22.9543C7.98677 22.9559 7.91918 22.9536 7.84994 22.9511C7.54641 22.9405 7.21144 22.9287 7.10109 23.2526C7.06398 23.3667 7.15909 23.7345 7.24494 24.0664C7.30538 24.3002 7.36122 24.5161 7.36309 24.6132C7.36309 24.6155 7.36196 24.6178 7.36083 24.62C7.3597 24.6223 7.35857 24.6246 7.35857 24.6268C7.29533 24.6404 7.23661 24.6811 7.19595 24.7534L7.18404 24.7747C7.12308 24.8841 7.04921 25.0166 6.94751 25.1015L6.93851 25.0984C6.91521 25.0905 6.89426 25.0834 6.8662 25.0834C6.69003 25.0743 6.51838 25.0291 6.34673 24.9794L6.26994 24.8483C5.88334 24.6837 5.68147 24.2243 5.50776 23.829C5.39528 23.573 5.29461 23.3439 5.16323 23.239C4.66307 23.1572 4.18263 23.1241 3.71218 23.0917H3.71215C2.83147 23.0311 1.98579 22.9729 1.11133 22.6017C0.677687 22.3304 0.375037 21.9643 0.140144 21.4535C0.00462945 21.354 0.0407668 21.0873 0.140144 20.8523H0.0407668C-0.090231 20.8523 0.144662 20.242 0.16273 20.2104C0.3043 19.9403 0.385209 19.9217 0.702507 19.8489L0.722858 19.8442L0.75725 19.8361C0.979483 19.7835 1.23135 19.7239 1.45464 19.7583C1.75277 19.8081 4.32756 20.0522 5.16323 20.0838L5.19485 20.016L5.89953 15.256C6.07118 14.822 6.77134 11.4679 6.77134 11.4679C6.77134 11.4362 9.04799 3.29046 9.04799 3.29046C8.82305 3.06536 8.55014 3.21305 8.31847 3.33842C8.25705 3.37167 8.19852 3.40334 8.14456 3.42608C7.83537 3.50343 7.53077 3.48918 7.2267 3.47496C6.92661 3.46092 6.62705 3.44691 6.32414 3.521C5.64657 3.68826 5.3394 3.57073 4.75669 3.12321C4.50486 2.87439 4.397 2.42749 4.29501 2.00489L4.295 2.00488L4.295 2.00487L4.295 2.00486L4.295 2.00485L4.29499 2.00484L4.29499 2.00484C4.25246 1.82859 4.21094 1.65656 4.16042 1.5049C4.13783 1.43709 4.2598 1.25628 4.49921 1.20655C5.2772 1.04637 6.94785 0.778751 7.67845 0.661715L7.67849 0.661708L7.67851 0.661705C7.83446 0.636724 7.94757 0.618605 8.00001 0.609858C8.02587 0.605545 8.1044 0.591514 8.22093 0.570693C8.83716 0.460587 10.5161 0.160595 11.0897 0.103572C11.6956 0.0443386 12.3148 0.0307622 12.9289 0.0172997L12.9289 0.0172995C13.1115 0.0132964 13.2936 0.00930339 13.4748 0.00412305C14.8029 -0.0365607 16.1128 0.0945313 17.4228 0.338634ZM69.9392 27.1496C70.1651 27.3666 70.6529 27.6649 71.3982 28.0401C72.1707 28.4198 72.6947 28.7679 72.9431 29.0617C73.2006 29.3601 73.3316 29.7081 73.3316 30.0969C73.3316 30.6529 73.1057 31.114 72.6631 31.4666C72.2204 31.8192 71.5835 31.9955 70.7794 31.9955C70.4948 31.9955 70.1605 31.9548 69.7901 31.8779C69.4197 31.8011 69.1306 31.7107 68.9319 31.6112L68.9228 31.6067V30.9965L68.9499 31.01C69.5417 31.3355 70.1425 31.5027 70.7478 31.5027C71.3892 31.5027 71.8816 31.3852 72.2113 31.1547C72.5411 30.9241 72.7082 30.5987 72.7082 30.1873C72.7082 29.8257 72.5953 29.5318 72.374 29.3149C72.1481 29.0979 71.6557 28.7995 70.9104 28.4198C70.0702 27.9949 69.5327 27.6333 69.3068 27.344C69.0809 27.0592 68.968 26.7201 68.968 26.3404C68.968 25.8251 69.2029 25.3821 69.6591 25.025C70.1154 24.6679 70.7342 24.4871 71.4931 24.4871C71.9855 24.4871 72.4824 24.5594 72.9793 24.704L72.9928 24.7086V25.2691L72.9702 25.2601C72.4914 25.0702 71.9674 24.9753 71.4208 24.9753C70.8652 24.9753 70.418 25.1018 70.0928 25.3459C69.7676 25.5946 69.6049 25.9065 69.6049 26.2817C69.6049 26.6433 69.7179 26.9371 69.9392 27.1496ZM41.2462 31.8734H40.6409V24.6136H44.5527V25.1064H41.2462V28.0175H44.3133V28.5057H41.2462V31.8734ZM46.1519 24.6136H46.7617V31.8734H46.1519V24.6136ZM48.1394 25.1064H50.538V31.8734H51.1388V25.1064H53.5329V24.6136H48.1394V25.1064ZM60.6384 30.8654C60.6203 30.6303 60.6113 30.4404 60.6113 30.2777H60.6067V24.6136H61.212V31.8689H60.7829L55.8366 26.024C55.7372 25.9065 55.6469 25.7889 55.5701 25.6714L55.5069 25.5855C55.5114 25.6669 55.5159 25.7618 55.5159 25.8793V31.8734H54.9106V24.6136H55.3759L55.3804 24.6181L60.2905 30.4088C60.3989 30.5354 60.5164 30.6891 60.6384 30.8654ZM63.8772 28.456H66.9398V27.9678H63.8772V25.1064H67.1792V24.6136H63.2674V31.8734H67.369V31.3852H63.8772V28.456ZM78.8426 29.0662C78.5851 28.7679 78.0611 28.4243 77.2887 28.0401C76.5479 27.6694 76.0555 27.3666 75.8296 27.1496C75.6083 26.9371 75.4954 26.6433 75.4954 26.2817C75.4954 25.9065 75.658 25.5946 75.9832 25.3505C76.3085 25.1064 76.7556 24.9798 77.3113 24.9798C77.8578 24.9798 78.3818 25.0747 78.8606 25.2646L78.8832 25.2736V24.7131L78.8697 24.7086C78.3728 24.5639 77.8759 24.4916 77.3835 24.4916C76.6246 24.4916 76.0058 24.6724 75.5496 25.0295C75.0933 25.3866 74.8584 25.8296 74.8584 26.3404C74.8584 26.7201 74.9714 27.0592 75.1972 27.3485C75.4231 27.6378 75.9606 27.9994 76.8008 28.4243C77.5507 28.8041 78.0385 29.1024 78.2644 29.3194C78.4857 29.5364 78.5986 29.8302 78.5986 30.1918C78.5986 30.6032 78.4315 30.9287 78.1018 31.1592C77.772 31.3897 77.2796 31.5073 76.6382 31.5073C76.0329 31.5073 75.4321 31.34 74.8404 31.0145L74.8133 31.001V31.6112L74.8223 31.6158C75.0211 31.7152 75.3102 31.8056 75.6806 31.8825C76.051 31.9593 76.3852 32 76.6698 32C77.4739 32 78.1063 31.8237 78.5535 31.4711C78.9962 31.1185 79.222 30.6574 79.222 30.1014C79.2356 29.7127 79.1046 29.3646 78.8426 29.0662ZM82.7962 18.6505C82.633 18.7418 82.447 18.8579 82.2527 18.9793L82.2526 18.9794C81.7149 19.3152 81.1132 19.6909 80.7534 19.6909C80.5863 19.7225 80.4191 19.6909 80.3197 19.6231C80.3095 19.4075 80.2886 19.1952 80.2681 18.9884C80.2252 18.5536 80.1846 18.1433 80.252 17.7788C80.1876 16.8888 80.2502 15.4584 80.2925 14.4922C80.3155 13.9664 80.3325 13.5781 80.3197 13.4889C80.0757 11.6636 78.9568 10.907 78.6692 10.7125C78.6427 10.6946 78.6233 10.6814 78.6123 10.6727C78.1018 10.2704 76.9725 10.5371 76.6699 10.6727C76.2238 10.8524 75.7201 11.5167 75.2852 12.0904C75.0639 12.3823 74.8604 12.6507 74.6914 12.8199C74.7809 11.1818 75.0243 10.4517 75.1477 10.0816C75.1986 9.92876 75.2291 9.83729 75.2199 9.76859C75.2199 9.76859 75.4683 8.25877 74.0996 8.25877C73.8409 8.25877 73.6297 8.49374 73.4211 8.72569L73.421 8.72578C73.3346 8.82189 73.2487 8.91747 73.16 8.9956C73.16 9.17507 72.209 12.2549 71.5455 14.4034L71.5452 14.4043L71.545 14.4049C71.2227 15.4486 70.9683 16.2722 70.924 16.4362C70.8924 16.5325 70.8066 16.852 70.7041 17.2485C69.6588 18.1991 68.3361 19.1668 67.0167 19.7587C66.8383 19.1477 66.9699 18.7478 67.2196 17.9891L67.2196 17.989L67.2196 17.9889C67.2988 17.7484 67.3897 17.472 67.4864 17.1414C67.5564 16.9281 68.043 14.8544 68.3595 13.5057L68.3602 13.5026C68.4928 12.9375 68.5954 12.5002 68.6248 12.3814C68.6409 12.2458 68.6838 12.1266 68.7221 12.0201C68.7592 11.9172 68.7919 11.8262 68.7919 11.744C68.7603 11.3055 68.4893 10.9077 67.9879 10.5371C67.5181 10.1664 67.0844 9.96297 66.6463 9.99913C66.5293 10.013 66.4184 10.0469 66.3083 10.0806C66.1675 10.1237 66.0279 10.1664 65.8783 10.1664C65.6434 10.4014 64.8936 13.2809 64.5909 14.723L64.2205 16.1288C64.0534 16.7662 63.954 17.9415 63.9856 18.3438C64.085 19.8175 65.002 22.6698 67.247 22.5026C67.4725 22.5026 69.3383 21.4902 70.4024 20.2134C70.6462 20.9157 71.0813 21.7993 71.6287 21.7341C71.8636 21.7341 72.2114 21.3996 72.5141 20.9973C72.8256 20.6181 73.2101 19.8139 73.5152 19.176L73.5154 19.1756L73.5155 19.1754L73.516 19.1743L73.5163 19.1736L73.5169 19.1725L73.5171 19.1719L73.5177 19.1707L73.5183 19.1695C73.6411 18.9128 73.7509 18.6834 73.8376 18.5201C73.8105 18.4026 75.4096 15.2564 76.3401 14.3432C76.6384 14.0491 77.0091 14.1685 77.1213 14.2046L77.1306 14.2076C77.1668 15.184 77.4378 17.824 77.6049 18.493C77.6249 18.6465 77.6428 18.7962 77.6603 18.9429C77.7613 19.79 77.8506 20.5396 78.278 21.368C78.3774 21.7025 79.9719 22.9953 81.6613 22.5749C81.8511 22.5297 83.1339 21.3047 83.3011 21.0018C83.5476 20.6437 83.7067 20.2759 83.8132 19.9705C84.2069 20.111 84.7241 20.2733 84.8594 20.2695C85.0853 20.2605 85.4331 20.1249 85.6861 19.9847C85.6847 19.9555 85.7534 19.9002 85.867 19.8088C86.1226 19.6031 86.6055 19.2146 87.0277 18.5292C87.385 18.0724 88.5031 16.3283 89.4084 14.9159C90.0709 13.8824 90.6196 13.0266 90.673 12.9826C90.7046 13.0143 90.7046 13.0143 90.7092 13.0459L90.7408 13.0776C91.6733 16.1981 88.881 24.5846 88.4097 26.0001C88.3764 26.0999 88.3547 26.1651 88.3467 26.1913C88.2699 26.4444 87.52 28.3249 86.445 28.7995C86.4344 28.8042 86.4235 28.809 86.4125 28.8139C86.1115 28.9469 85.6348 29.1575 85.3473 28.8131C84.6688 28.0057 84.4727 26.7901 84.3142 25.8074C84.2774 25.5797 84.2427 25.3644 84.2045 25.1697C84.2045 25.1697 83.9876 23.9401 82.9396 23.9898C82.9396 23.9898 81.2773 23.9898 82.1627 26.5529C82.1627 26.5529 82.8674 30.3591 85.0717 31.2812C85.6048 31.5027 86.6031 31.6293 87.2264 31.2812C88.3557 30.6529 89.6793 29.1567 90.6776 25.7844C90.6776 25.7844 92.105 21.0064 92.7871 17.3719C93.2072 15.4643 93.424 13.4708 93.6227 11.6355C93.6553 11.2561 93.7202 10.7304 93.7749 10.2875C93.8264 9.87034 93.8688 9.52659 93.8667 9.44766C93.8354 9.1061 93.5623 8.75738 93.3711 8.51321C93.2587 8.36959 93.1745 8.26214 93.1846 8.21359C92.891 8.06441 92.4663 7.8836 92.1772 7.79319C92.0445 7.77724 91.9101 7.68473 91.7953 7.60569C91.7148 7.55029 91.644 7.5015 91.59 7.49032C91.5601 7.41734 91.5279 7.36014 91.4994 7.30951C91.429 7.18453 91.3812 7.09961 91.4455 6.91623C91.2783 6.69473 90.8085 6.10255 90.6504 6.10708C88.5118 6.29571 87.4731 7.98584 86.0626 10.2811C85.614 11.011 85.1279 11.8021 84.5568 12.6255C83.8521 13.7375 82.5557 16.4453 82.7002 17.9551C82.7062 18.0164 82.7111 18.0731 82.7156 18.1266C82.7325 18.3236 82.7456 18.4765 82.7962 18.6505ZM27.134 18.8482C27.2091 18.8013 27.2829 18.7552 27.3548 18.7109C27.3261 18.5593 27.3107 18.4136 27.3107 18.276C27.3107 17.9008 27.4056 17.0691 27.767 16.4814C27.7895 16.4407 28.2955 16.1333 28.3181 16.3684C28.3321 16.5253 28.3659 16.7403 28.399 16.9514L28.399 16.9515C28.4403 17.2148 28.4807 17.472 28.4807 17.6025C28.5025 17.7603 28.6212 18.0241 28.797 18.3369C28.9089 18.3371 28.9813 18.3598 28.9731 18.4207C28.9505 18.4433 28.933 18.4902 28.9207 18.5493C29.4588 19.4456 30.3508 20.6078 30.8115 20.9069C31.2136 20.5362 31.3671 20.2695 31.5388 19.7678C32.3428 17.8556 32.4016 14.8902 32.2615 13.3895C32.1866 12.5711 31.93 11.6612 31.7066 10.8692L31.7066 10.8692L31.7066 10.8691C31.4858 10.0863 31.2974 9.41849 31.3491 9.06794C31.3491 8.66563 31.5298 7.17841 32.4829 6.39186C32.5957 6.37763 32.7251 6.34487 32.8673 6.30885C33.4027 6.17327 34.1206 5.99147 34.8273 6.5772C36.1192 7.63949 36.9097 9.68272 36.9097 9.91778C36.9097 10.1528 36.7697 11.2016 36.467 11.839C36.4442 11.8618 36.42 11.8916 36.3936 11.9239C36.2635 12.0837 36.0816 12.3071 35.7623 12.074C35.7233 12.0454 35.6403 11.8811 35.526 11.6549C35.2437 11.096 34.7701 10.1586 34.2943 9.94942C33.4812 9.47478 33.2824 10.4376 33.7387 11.6898C33.8164 12.2023 33.9079 12.7177 33.9999 13.2359L33.9999 13.2361C34.3461 15.1861 34.6992 17.1749 34.353 19.1891C34.3371 19.3069 34.3213 19.4414 34.3041 19.5884L34.304 19.5895L34.3039 19.59C34.1399 20.9896 33.8435 23.5197 32.0537 23.5197C31.9205 23.5197 31.8369 23.4948 31.7534 23.47C31.6698 23.4451 31.5862 23.4203 31.453 23.4203C31.0456 23.4203 30.5449 22.988 30.2224 22.7097C30.0692 22.5775 29.9563 22.48 29.9126 22.48C29.3996 22.1746 28.7807 21.512 28.2753 20.7535C28.2513 20.7911 28.2265 20.8287 28.2006 20.8662C28.0335 21.1691 26.7461 22.3941 26.5564 22.4393C24.867 22.8597 23.2724 21.5669 23.173 21.2324C22.7457 20.404 22.6563 19.6544 22.5553 18.8073V18.8073C22.5378 18.6606 22.52 18.5109 22.5 18.3574C22.3328 17.6884 22.0618 15.0484 22.0257 14.0765C22.0257 13.9635 21.7456 13.7692 21.4339 14.072C20.848 14.647 19.6568 16.9226 18.7455 18.6636L18.7455 18.6636C18.2094 19.6877 17.7702 20.5268 17.6079 20.7261C17.3052 21.1284 16.7541 21.603 16.5238 21.603C15.6881 21.7025 15.1189 19.5914 15.0828 19.2886C15.0828 19.1213 15.7197 16.608 15.8191 16.3051C15.9546 15.8033 17.1833 11.5044 18.0867 9.12217C18.0867 9.066 18.0813 8.98191 18.0749 8.88339C18.0659 8.74406 18.0551 8.57587 18.0551 8.41699C18.1443 8.33835 18.2308 8.24204 18.3177 8.1453C18.5254 7.91393 18.7353 7.68016 18.9901 7.68016C20.3588 7.68016 20.1104 9.18998 20.1104 9.18998C20.142 9.42504 19.8845 11.075 19.7852 11.2106C19.618 11.7124 19.5503 12.2141 19.5819 12.6843C19.751 12.5151 19.9545 12.2467 20.1757 11.9548C20.6107 11.3811 21.1143 10.7168 21.5604 10.5371C21.8631 10.4014 22.9924 10.1347 23.5028 10.5371C23.5421 10.5682 23.6118 10.6198 23.6976 10.6831C23.8977 10.8308 24.1849 11.0429 24.3746 11.2106V11.2422C24.3746 11.2739 24.474 11.4773 24.5056 11.4773C24.7036 11.8657 24.8408 12.1218 24.9366 12.3007C25.0761 12.5611 25.1279 12.6578 25.1518 12.7609C25.166 12.8217 25.1705 12.8848 25.1776 12.985C25.1838 13.0721 25.192 13.1872 25.2103 13.3533C25.2549 13.4589 25.2257 14.0584 25.189 14.8114C25.144 15.7338 25.0878 16.8865 25.1425 17.6431C25.0737 18.0156 25.1153 18.4357 25.1595 18.8809C25.1791 19.0788 25.1992 19.2816 25.2103 19.4875C25.3097 19.5553 25.4768 19.5869 25.6439 19.5553C26.0021 19.5553 26.5983 19.1829 27.134 18.8482ZM40.3248 20.9792C40.4738 21.0696 41.0882 20.9385 41.2553 20.8391C44.3224 19.935 47.8142 16.9063 47.7736 12.6119C47.7645 11.8389 47.5748 10.6636 46.5359 10.1619C45.8357 9.33915 44.3224 9.18997 44.0559 9.18997C43.1164 9.18997 41.2553 10.519 40.8533 11.188C40.8171 11.1564 40.9707 10.5687 40.9707 10.5687C41.4044 9.19449 41.5805 8.27233 41.5805 8.13672C41.5805 7.97751 41.4807 7.86077 41.3374 7.69326C41.2081 7.54211 41.0434 7.34963 40.8849 7.0473C40.675 6.89541 40.4659 6.71397 40.2812 6.55362C40.0205 6.32742 39.8082 6.14321 39.7104 6.14321C39.583 6.14321 39.5247 6.22302 39.4714 6.29605C39.4263 6.35766 39.3849 6.41444 39.3084 6.41444C39.1261 6.41444 39.115 6.55398 39.1045 6.68558C39.0996 6.7464 39.0949 6.80553 39.0735 6.8484C38.7836 7.9906 38.6432 8.3152 38.4471 8.76855L38.4471 8.76859C38.304 9.09931 38.1313 9.49854 37.8494 10.3336C37.9487 10.6049 37.9487 11.0388 37.8494 11.2061C37.6797 11.6476 37.5118 12.5887 37.3855 13.2963L37.3855 13.2964C37.3101 13.7189 37.2496 14.0582 37.2124 14.1579C36.8632 15.8638 35.8574 20.0073 35.125 23.0243C34.6638 24.924 34.3111 26.3771 34.2989 26.4941C34.2197 26.6812 34.6273 27.6964 34.7968 28.1185L34.7968 28.1185L34.7969 28.1186C34.8402 28.2266 34.868 28.2958 34.868 28.3023C34.9493 28.6368 35.3288 28.6639 35.5637 28.6639C35.5637 28.6639 35.9747 28.578 36.3361 27.457C36.6388 26.0828 37.4518 21.8019 37.5512 21.264C37.9216 19.5553 38.8928 16.4226 39.3626 15.5186C39.5297 15.0168 40.8171 12.9329 41.3185 12.5984C42.9765 11.5393 43.6871 11.7953 44.2309 11.9913C44.3672 12.0404 44.493 12.0857 44.6206 12.1056C46.2693 13.3352 44.3224 17.6251 42.0503 18.1901C41.9696 18.2516 41.6931 18.3731 41.341 18.5279C40.7868 18.7715 40.0452 19.0975 39.5839 19.4016C39.2813 19.6005 39.3355 20.2785 39.4394 20.4051C39.8279 20.8843 40.3248 20.9792 40.3248 20.9792ZM54.0115 20.2445C53.507 20.6025 52.899 21.1788 52.5663 21.594C52.5663 21.6085 52.5677 21.6258 52.5693 21.6453L52.5693 21.6455C52.5788 21.76 52.5944 21.9483 52.363 22.0641C51.961 22.2992 51.2563 22.4981 51.0259 22.4981C49.7792 22.593 47.8684 19.8627 47.7645 18.3393C47.7436 18.0731 47.9442 17.4645 48.1307 16.8985C48.2261 16.6092 48.3178 16.3309 48.3743 16.1153L48.7447 14.7094C49.0474 13.2674 49.7972 10.3879 50.0321 10.1529C50.1697 10.1529 50.199 10.1203 50.2317 10.0839C50.2624 10.0497 50.2962 10.0121 50.4251 9.99464C50.8588 9.95848 51.2969 10.1619 51.7667 10.5326C52.2681 10.9032 52.5391 11.301 52.5708 11.7395C52.5708 11.8217 52.538 11.9127 52.501 12.0156C52.4626 12.1221 52.4197 12.2413 52.4036 12.3769C52.3043 12.7792 52.1687 13.3849 52.0694 14.1896C51.97 14.9626 51.8029 15.5638 51.568 15.9345C51.4891 16.1108 51.4331 16.3882 51.3806 16.6491L51.3805 16.6492L51.3805 16.6492L51.3805 16.6493C51.3428 16.8364 51.3068 17.0149 51.2653 17.1414C51.1686 17.472 51.0776 17.7484 50.9985 17.9888L50.9985 17.989L50.9984 17.9891C50.7487 18.7479 50.6172 19.1477 50.7955 19.7587C52.3311 19.0699 53.871 17.872 54.9731 16.7846C55.2432 15.635 55.4511 14.4847 55.543 13.2764C55.559 13.1522 55.5759 13.0219 55.5934 12.8869L55.5939 12.8832L55.594 12.8826L55.594 12.8823C55.6855 12.178 55.7941 11.3419 55.8773 10.528C55.9114 10.3094 55.9375 10.0791 55.964 9.84509L55.964 9.84485C56.0148 9.39671 56.0672 8.93511 56.1799 8.51642H56.582C56.9524 8.51642 57.3002 9.01819 57.4673 9.45667C57.6345 9.95844 57.77 10.4286 57.8016 10.9303C57.8179 11.1214 57.791 11.2932 57.7611 11.4842C57.733 11.6638 57.7022 11.8603 57.7022 12.1056C58.0365 11.2694 59.8795 9.85899 60.95 9.85899C61.9212 9.85899 63.3984 10.4286 64.1663 11.3688C64.3018 11.5361 64.2024 13.0594 63.6513 13.1724C63.3396 13.2312 62.7163 13.1092 62.6214 12.9736C62.6112 12.9051 62.6052 12.8516 62.5993 12.798C62.5867 12.6854 62.5741 12.5723 62.522 12.3181C62.513 12.2819 62.3142 12.0559 62.242 12.0921C60.9997 12.6707 59.4639 13.5883 58.6689 14.8224C58.6689 14.723 57.5351 16.7662 56.9162 19.0535C56.4826 19.9576 56.189 21.4538 56.4916 22.3941C56.2929 22.5297 56.0896 22.5975 55.8547 22.5975C55.7312 22.5975 55.3037 22.4022 55.0032 22.2649L55.0031 22.2649L54.9196 22.2268C54.8002 22.1073 54.1613 20.8954 54.0115 20.2445ZM67.8728 8.1971C68.1999 8.35972 68.5828 8.55004 68.9862 8.52095C70.5943 8.41698 69.6909 5.53296 69.5237 5.37022C69.447 5.19392 67.5678 4.75545 66.9309 5.91719C66.8044 6.14773 66.6553 6.44608 66.7095 6.59525C66.8902 7.09702 67.1567 7.64399 67.5452 7.85193C67.6142 7.92092 67.6201 7.95945 67.6278 8.00979C67.6312 8.03201 67.6349 8.05653 67.6446 8.08699C67.717 8.11967 67.7932 8.15754 67.8727 8.19704L67.8728 8.1971ZM52.0784 8.36274C51.675 8.39184 51.2921 8.20151 50.9649 8.03889L50.9648 8.03883C50.8853 7.99933 50.8092 7.96147 50.7368 7.92879C50.7271 7.89833 50.7233 7.87381 50.7199 7.85159C50.7122 7.80125 50.7063 7.76272 50.6374 7.69372C50.2489 7.48579 49.9779 6.93881 49.8017 6.43705C49.7475 6.28788 49.8966 5.98953 50.0231 5.75899C50.66 4.59724 52.5391 5.03572 52.6159 5.21202C52.7831 5.37927 53.6865 8.25877 52.0784 8.36274ZM85.6048 16.4227C86.4404 15.496 87.4026 14.4066 88.0215 13.6471C88.1163 13.5477 90.2032 10.4286 90.1942 10.0172L90.1852 9.75957C90.0542 9.76409 89.6612 9.48834 89.6612 9.48834C89.6612 9.48834 89.4624 9.33465 89.5528 9.10411C89.1462 9.5019 88.5951 10.3879 88.3873 10.8761C88.261 11.1672 88.044 11.4356 87.8454 11.6814C87.6677 11.9012 87.5046 12.1029 87.4342 12.2865C87.0114 13.0876 86.5688 14.1457 86.1696 15.0998C85.9674 15.5831 85.7764 16.0397 85.6048 16.4227Z" fill="#F14156"/>
</g>
<defs>
<clipPath id="clip0">
<rect width="93.8667" height="32" fill="white"/>
</clipPath>
</defs>
</svg>
